<svg width="17" height="16" viewBox="0 0 17 16" fill="none" xmlns="http://www.w3.org/2000/svg">
<path d="M8.5 1C4.39277 1 1.0625 4.13438 1.0625 8C1.0625 11.8656 4.39277 15 8.5 15C12.6072 15 15.9375 11.8656 15.9375 8C15.9375 4.13438 12.6072 1 8.5 1ZM8.5 13.8125C5.09004 13.8125 2.32422 11.2094 2.32422 8C2.32422 4.79063 5.09004 2.1875 8.5 2.1875C11.91 2.1875 14.6758 4.79063 14.6758 8C14.6758 11.2094 11.91 13.8125 8.5 13.8125Z" fill="#262626"/>
<path d="M7.70312 5.25C7.70313 5.44891 7.78708 5.63968 7.93652 5.78033C8.08597 5.92098 8.28866 6 8.5 6C8.71134 6 8.91403 5.92098 9.06348 5.78033C9.21292 5.63968 9.29688 5.44891 9.29688 5.25C9.29688 5.05109 9.21292 4.86032 9.06348 4.71967C8.91403 4.57902 8.71134 4.5 8.5 4.5C8.28866 4.5 8.08597 4.57902 7.93652 4.71967C7.78708 4.86032 7.70313 5.05109 7.70312 5.25V5.25ZM8.89844 7H8.10156C8.02852 7 7.96875 7.05625 7.96875 7.125V11.375C7.96875 11.4438 8.02852 11.5 8.10156 11.5H8.89844C8.97148 11.5 9.03125 11.4438 9.03125 11.375V7.125C9.03125 7.05625 8.97148 7 8.89844 7Z" fill="#262626"/>
</svg>
