<svg width="40" height="40" viewBox="0 0 40 40" fill="none" xmlns="http://www.w3.org/2000/svg">
<rect width="40" height="40" rx="5" fill="#FADB14"/>
<path fill-rule="evenodd" clip-rule="evenodd" d="M23.9019 9.25002L23.9874 9.25003L26.5991 9.25003L26.628 9.25003C27.0234 9.25002 27.3645 9.25001 27.6454 9.27296C27.9419 9.29718 28.2368 9.35067 28.5206 9.49527C28.944 9.71098 29.2882 10.0552 29.5039 10.4786C29.6485 10.7623 29.702 11.0573 29.7262 11.3538C29.7492 11.6347 29.7492 11.9757 29.7491 12.371V12.3711V12.4L29.7491 15.0118L29.7492 15.0973C29.7493 15.7488 29.7495 16.1998 29.6455 16.6328C29.5537 17.0154 29.4021 17.3812 29.1965 17.7168C28.9639 18.0964 28.6449 18.4152 28.184 18.8758L28.1236 18.9362L24.9788 22.0811C25.2865 22.5133 25.5417 22.8793 25.7381 23.2033C25.987 23.6138 26.1708 24.0024 26.2581 24.4358C26.3978 25.1295 26.3384 25.8486 26.0867 26.51C25.9295 26.9231 25.6845 27.2763 25.3716 27.6404C25.069 27.9925 24.669 28.3925 24.1756 28.8859L24.155 28.9065L23.5312 29.5303C23.3753 29.6862 23.1587 29.7656 22.939 29.7474C22.7193 29.7293 22.5187 29.6153 22.3905 29.4359L20.3921 26.6381C20.3606 26.6659 20.3297 26.6927 20.2991 26.7186C20.0086 26.9653 19.7089 27.17 19.3489 27.287C18.7966 27.4665 18.2017 27.4665 17.6493 27.287C17.2894 27.17 16.9897 26.9653 16.6991 26.7186C16.4206 26.4821 16.1053 26.1669 15.7276 25.7892L15.7061 25.7676L13.2316 23.2931L13.21 23.2716C12.8323 22.8939 12.5171 22.5786 12.2805 22.3C12.0339 22.0095 11.8291 21.7098 11.7122 21.3498C11.5327 20.7975 11.5327 20.2026 11.7122 19.6502C11.8291 19.2902 12.0339 18.9906 12.2805 18.7C12.3063 18.6697 12.333 18.6389 12.3607 18.6076L9.56455 16.6103C9.38515 16.4821 9.27123 16.2815 9.25305 16.0618C9.23487 15.8421 9.31428 15.6255 9.47017 15.4696L10.0943 14.8455L10.1148 14.825C10.6082 14.3316 11.0082 13.9317 11.3602 13.6291C11.7243 13.3163 12.0775 13.0712 12.4906 12.914C13.1519 12.6623 13.871 12.6029 14.5646 12.7426C14.998 12.8299 15.3866 13.0136 15.7971 13.2625C16.1207 13.4586 16.4862 13.7134 16.9179 14.0206L20.0629 10.8756L20.1233 10.8151C20.5839 10.3543 20.9027 10.0353 21.2824 9.80263C21.6179 9.59702 21.9837 9.44551 22.3664 9.35365C22.7993 9.2497 23.2503 9.24983 23.9019 9.25002ZM23.4688 21.4698L27.0629 17.8756C27.607 17.3315 27.7892 17.1425 27.9176 16.933C28.0409 16.7317 28.1319 16.5122 28.187 16.2826C28.2443 16.0438 28.2491 15.7813 28.2491 15.0118L28.2491 12.4C28.2491 11.9676 28.2486 11.6884 28.2312 11.4759C28.2145 11.2722 28.1863 11.1966 28.1674 11.1595C28.0955 11.0184 27.9808 10.9037 27.8396 10.8318C27.8025 10.8129 27.727 10.7846 27.5233 10.768C27.3108 10.7506 27.0316 10.75 26.5991 10.75L23.9874 10.75C23.2179 10.75 22.9554 10.7549 22.7165 10.8122C22.4869 10.8673 22.2675 10.9582 22.0662 11.0816C21.8567 11.2099 21.6677 11.3922 21.1236 11.9362L16.5655 16.4943L14.031 19.0303C14.0244 19.0368 14.0177 19.0432 14.011 19.0495C13.7559 19.3065 13.5678 19.5015 13.4241 19.6708C13.2376 19.8904 13.1702 20.0171 13.1387 20.1138C13.0572 20.3648 13.0572 20.6353 13.1387 20.8863C13.1702 20.983 13.2376 21.1097 13.4241 21.3293C13.6162 21.5556 13.8874 21.8277 14.2922 22.2324L14.9995 22.9397L16.4695 21.4698C16.7624 21.1769 17.2373 21.1769 17.5302 21.4698C17.8231 21.7626 17.8231 22.2375 17.5302 22.5304L16.0602 24.0004L16.7667 24.707C17.1715 25.1117 17.4436 25.383 17.6699 25.5751C17.8895 25.7616 18.0162 25.829 18.1129 25.8604C18.3639 25.942 18.6344 25.942 18.8854 25.8604C18.9821 25.829 19.1088 25.7616 19.3284 25.5751C19.5547 25.383 19.8268 25.1117 20.2316 24.707L23.4688 21.4698ZM13.4186 17.5199L15.5042 15.4343L15.8418 15.0965C15.5128 14.8643 15.25 14.6849 15.0195 14.5452C14.6848 14.3423 14.4647 14.2526 14.2685 14.2131C13.8523 14.1293 13.4209 14.1649 13.0241 14.3159C12.837 14.3871 12.6347 14.5117 12.3378 14.7668C12.0343 15.0277 11.6746 15.3865 11.1569 15.9043L13.4186 17.5199ZM23.0965 27.8436L21.4803 25.5809L23.903 23.1572C24.1358 23.4869 24.3155 23.7501 24.4555 23.981C24.6584 24.3157 24.7481 24.5358 24.7876 24.732C24.8715 25.1482 24.8358 25.5796 24.6848 25.9765C24.6136 26.1635 24.489 26.3659 24.2339 26.6628C23.9731 26.9663 23.6142 27.3259 23.0965 27.8436ZM20.7524 16.9996C20.7524 16.3092 21.3121 15.7496 22.0024 15.7496C22.6928 15.7496 23.2524 16.3092 23.2524 16.9996C23.2524 17.6899 22.6928 18.2496 22.0024 18.2496C21.3121 18.2496 20.7524 17.6899 20.7524 16.9996ZM22.0024 14.2496C20.4837 14.2496 19.2524 15.4808 19.2524 16.9996C19.2524 18.5184 20.4837 19.7496 22.0024 19.7496C23.5212 19.7496 24.7524 18.5184 24.7524 16.9996C24.7524 15.4808 23.5212 14.2496 22.0024 14.2496Z" fill="#262626"/>
</svg>
