<svg width="37" height="36" viewBox="0 0 37 36" fill="none" xmlns="http://www.w3.org/2000/svg">
<path d="M12.6104 4.23418C12.566 3.34609 12.1853 2.52879 11.5381 1.93351C10.8878 1.33823 10.0502 1.03255 9.17463 1.0776C8.60675 1.10656 8.06742 1.28031 7.59789 1.57956C7.34409 1.74045 7.1125 1.93673 6.90629 2.1684C6.31937 2.82804 6.01799 3.67751 6.0624 4.5656C6.15123 6.39648 7.69307 7.81228 9.49822 7.72218C10.3738 7.67713 11.1796 7.29101 11.7666 6.63459C12.3535 5.97175 12.6549 5.12227 12.6104 4.23418Z" fill="#F3D113"/>
<path d="M10.5289 35.5458C12.3341 35.4557 13.73 33.8919 13.6412 32.061C13.5523 30.2302 12.0105 28.8144 10.2053 28.9045C9.62477 28.9334 9.08862 29.1136 8.62861 29.4064C7.65465 30.0242 7.02967 31.1472 7.08994 32.3892C7.18195 34.2201 8.72378 35.6359 10.5289 35.5458Z" fill="#F3D113"/>
<path d="M7.87047 27.9199C7.16618 27.1959 6.52533 26.3882 5.97014 25.4937C2.67391 20.1652 3.33697 13.4401 7.14714 8.87742C5.95428 8.2757 5.03108 7.19455 4.62818 5.87207C-0.603285 11.6929 -1.61849 20.5706 2.70881 27.5659C3.53049 28.8948 4.49493 30.0725 5.57041 31.1022C5.87497 29.7572 6.71886 28.6084 7.87047 27.9199Z" fill="#F3D113"/>
<path d="M33.4251 14.132C32.8572 14.161 32.3179 14.3347 31.8484 14.634C31.5946 14.7949 31.363 14.9911 31.1568 15.2228C30.5699 15.8824 30.2685 16.7319 30.3129 17.62C30.4017 19.4509 31.9436 20.8667 33.7487 20.7766C35.5539 20.6865 36.9498 19.1227 36.8609 17.2918C36.7721 15.4577 35.2303 14.0419 33.4251 14.132Z" fill="#F3D113"/>
<path d="M29.5262 10.5058C30.0814 11.4036 30.5192 12.3399 30.8523 13.2988C31.5851 12.8 32.4385 12.504 33.3459 12.459C33.8059 12.4364 34.2532 12.4815 34.6815 12.5812C34.2373 11.1526 33.6092 9.75608 32.7875 8.42717C28.4634 1.43507 20.1419 -1.50271 12.6929 0.740042C13.6383 1.63135 14.1966 2.84121 14.2601 4.15404C14.2633 4.21839 14.2601 4.28597 14.2601 4.35032C19.9706 2.85408 26.2299 5.17727 29.5262 10.5058Z" fill="#F3D113"/>
<path d="M33.8279 22.447C32.8476 22.4953 31.9244 22.2475 31.1313 21.7842C30.2335 25.0534 28.184 28.004 25.1321 29.9443C22.0833 31.8846 18.5682 32.4734 15.2783 31.8685C15.2814 31.9071 15.2878 31.9425 15.2878 31.9811C15.3544 33.3615 14.8563 34.6422 14.0029 35.5914C18.3746 36.5471 23.0985 35.8488 27.1783 33.2553C31.255 30.6619 33.9326 26.6494 34.9859 22.2443C34.6179 22.3537 34.2308 22.4277 33.8279 22.447Z" fill="#F3D113"/>
</svg>
