<svg width="33" height="22" viewBox="0 0 33 22" fill="none" xmlns="http://www.w3.org/2000/svg">
<path d="M0 11C0 4.92487 4.92487 0 11 0H22C28.0751 0 33 4.92487 33 11C33 17.0751 28.0751 22 22 22H11C4.92487 22 0 17.0751 0 11Z" fill="#FF4D4F"/>
<path d="M10.9219 11.4473H12.1592C13.5674 11.4473 14.4424 12.165 14.4424 13.3271C14.4424 14.3594 13.5059 15.0977 12.2002 15.0977C10.874 15.0977 10.0332 14.4004 9.92383 13.3887H8.74121C8.83008 15.0225 10.1494 16.1641 12.2139 16.1641C14.1484 16.1641 15.6934 14.9814 15.6934 13.2861C15.6934 11.8984 14.7363 10.9756 13.2461 10.8867V10.8594C14.4766 10.6406 15.2695 9.75195 15.2695 8.51465C15.2695 7.03125 13.9365 5.97168 12.1729 5.97168C10.3203 5.97168 9.07617 7.04492 8.93945 8.71973H10.1221C10.2314 7.6875 10.9834 7.03809 12.1182 7.03809C13.3691 7.03809 14.0322 7.70117 14.0322 8.67871C14.0322 9.67676 13.2393 10.4082 12.1045 10.4082H10.9219V11.4473ZM20.6494 16.1641C22.9463 16.1641 24.2725 14.1748 24.2725 11.0576C24.2725 7.96094 22.9395 5.97168 20.6494 5.97168C18.3594 5.97168 17.0127 7.97461 17.0127 11.0645C17.0127 14.1816 18.3457 16.1641 20.6494 16.1641ZM20.6494 15.0908C19.1045 15.0908 18.25 13.5186 18.25 11.0576C18.25 8.65137 19.125 7.05176 20.6494 7.05176C22.1738 7.05176 23.0352 8.6377 23.0352 11.0645C23.0352 13.5254 22.1875 15.0908 20.6494 15.0908Z" fill="white"/>
<path d="M11 1H22V-1H11V1ZM22 21H11V23H22V21ZM11 21C5.47715 21 1 16.5228 1 11H-1C-1 17.6274 4.37258 23 11 23V21ZM32 11C32 16.5228 27.5228 21 22 21V23C28.6274 23 34 17.6274 34 11H32ZM22 1C27.5228 1 32 5.47715 32 11H34C34 4.37258 28.6274 -1 22 -1V1ZM11 -1C4.37258 -1 -1 4.37258 -1 11H1C1 5.47715 5.47715 1 11 1V-1Z" fill="white"/>
</svg>
